<?xml version="1.0" encoding="UTF-8" standalone="no"?><!DOCTYPE svg PUBLIC "-//W3C//DTD SVG 1.1//EN" "http://www.w3.org/Graphics/SVG/1.1/DTD/svg11.dtd"><svg width="100%" height="100%" viewBox="0 0 405 421" version="1.1" xmlns="http://www.w3.org/2000/svg" xmlns:xlink="http://www.w3.org/1999/xlink" xml:space="preserve" xmlns:serif="http://www.serif.com/" style="fill-rule:evenodd;clip-rule:evenodd;stroke-linejoin:round;stroke-miterlimit:2;"><g id="em"><path id="bottom" d="M52.257,131.999l-52.257,261.894l67.897,0l32.854,-186.851l94.178,213.241l96.223,-212.828l29.007,186.123l84.082,0l-3.854,-15l-67.385,0c-0,0 -34.78,-223.171 -34.78,-223.171l-103.133,228.111l-100.563,-227.697l-39.222,223.072c0,0 -37.015,0 -37.015,0l48.736,-244.247c10.686,-1.744 18.854,-11.028 18.854,-22.206c0,-12.418 -10.082,-22.5 -22.5,-22.5c-12.418,0 -22.5,10.082 -22.5,22.5c0,8.374 4.584,15.685 11.378,19.559Zm11.122,-27.059c4.139,0 7.5,3.361 7.5,7.5c0,4.139 -3.361,7.5 -7.5,7.5c-4.139,0 -7.5,-3.361 -7.5,-7.5c0,-4.139 3.361,-7.5 7.5,-7.5Z" style="fill:#86c0d1;"/><path id="top" d="M372.638,306.94l-54.748,-306.94l-122.18,268.751c-0,-0 -119.088,-267.566 -119.088,-267.566l-15.611,-0.055l134.506,304.287l116.073,-255.315l46.224,259.154c-7.035,3.807 -11.816,11.251 -11.816,19.804c-0,12.418 10.081,22.5 22.5,22.5c12.418,-0 22.5,-10.082 22.5,-22.5c-0,-11.004 -7.917,-20.173 -18.36,-22.12Zm-4.14,14.62c4.139,-0 7.5,3.36 7.5,7.5c-0,4.139 -3.361,7.5 -7.5,7.5c-4.14,-0 -7.5,-3.361 -7.5,-7.5c-0,-4.14 3.36,-7.5 7.5,-7.5Z" style="fill:#a2bf8a;"/></g></svg>